<?xml version="1.0" standalone="no"?>
<!DOCTYPE svg PUBLIC "-//W3C//DTD SVG 20010904//EN"
 "http://www.w3.org/TR/2001/REC-SVG-20010904/DTD/svg10.dtd">
<svg version="1.0" xmlns="http://www.w3.org/2000/svg"
 width="862.000000pt" height="862.000000pt" viewBox="0 0 862.000000 862.000000"
 preserveAspectRatio="xMidYMid meet">
<metadata>
Created by potrace 1.11, written by Peter Selinger 2001-2013
</metadata>
<g transform="translate(0.000000,862.000000) scale(0.100000,-0.100000)"
fill="#000000" stroke="none">
<path d="M3640 8119 c0 -6 -4 -7 -10 -4 -5 3 -10 0 -10 -7 0 -9 -3 -9 -10 2
-7 12 -10 12 -10 1 0 -7 -6 -11 -15 -8 -8 4 -17 1 -21 -4 -4 -7 -10 -7 -16 -1
-7 7 -19 7 -34 2 -14 -6 -26 -5 -29 1 -4 5 -11 7 -16 3 -5 -3 -7 -9 -4 -13 2
-5 -7 -7 -20 -5 -14 1 -27 -2 -30 -7 -3 -4 -16 -4 -30 1 -17 7 -25 6 -25 -1 0
-8 -5 -7 -15 1 -12 10 -15 10 -15 0 0 -7 -7 -10 -15 -6 -9 3 -18 0 -21 -7 -5
-13 -42 -16 -61 -4 -7 4 -15 2 -19 -4 -5 -8 -3 -9 6 -4 8 5 11 4 7 -2 -4 -6
-18 -9 -32 -8 -14 2 -27 -1 -30 -5 -3 -5 -14 -7 -25 -5 -11 2 -23 -1 -26 -7
-4 -6 -2 -8 4 -4 6 3 13 2 17 -3 5 -9 -2 -9 -40 -1 -21 5 -36 0 -30 -10 3 -5
2 -10 -4 -10 -5 0 -12 6 -14 13 -4 9 -6 9 -6 -1 -1 -7 -5 -10 -11 -7 -5 3 -10
2 -10 -3 0 -5 -7 -9 -15 -10 -8 -1 -22 -3 -30 -4 -8 -1 -16 -7 -19 -15 -3 -7
-11 -13 -18 -13 -9 0 -9 3 2 11 11 8 9 9 -10 3 -14 -3 -28 -12 -32 -19 -4 -7
-19 -11 -33 -10 -14 2 -25 -1 -25 -7 0 -7 -5 -6 -14 1 -11 9 -15 8 -20 -5 -5
-14 -9 -14 -23 -3 -9 8 -14 9 -11 4 4 -6 -2 -17 -14 -24 -16 -10 -19 -10 -13
1 3 7 0 5 -9 -6 -8 -10 -19 -15 -25 -11 -6 3 -11 1 -11 -5 0 -6 -5 -8 -10 -5
-6 4 -7 11 -4 17 5 7 2 8 -5 4 -7 -5 -10 -10 -7 -13 10 -11 -25 -35 -44 -30
-11 3 -22 1 -25 -4 -3 -4 -13 -5 -23 -2 -13 4 -13 2 3 -10 20 -16 20 -16 -2
-10 -15 3 -23 1 -23 -7 0 -10 -3 -10 -14 -1 -11 9 -17 8 -28 -8 -8 -12 -18
-18 -21 -14 -4 3 -7 1 -7 -5 0 -7 -11 -12 -25 -12 -14 0 -25 -5 -25 -11 0 -5
-4 -7 -10 -4 -5 3 -10 1 -10 -4 0 -6 -5 -11 -11 -11 -5 0 -7 5 -3 12 4 7 3 8
-4 4 -7 -4 -12 -13 -12 -20 0 -8 -11 -13 -27 -12 -21 1 -28 -4 -27 -16 1 -14
-2 -15 -17 -8 -15 9 -17 8 -12 -6 4 -12 3 -15 -5 -10 -7 4 -12 2 -12 -4 0 -7
-7 -10 -15 -6 -9 3 -15 0 -15 -9 0 -9 -10 -15 -25 -15 -14 0 -25 -5 -25 -10 0
-6 -16 -18 -35 -27 -19 -9 -32 -21 -28 -26 3 -5 -5 -3 -18 4 -23 12 -23 11 -9
-6 14 -17 13 -18 -7 -13 -13 4 -26 1 -30 -4 -3 -6 -2 -8 4 -5 5 3 10 0 10 -8
0 -10 -5 -11 -18 -5 -12 7 -21 5 -30 -8 -13 -16 -12 -16 6 -2 18 14 19 14 7
-2 -8 -10 -20 -14 -29 -11 -11 4 -14 2 -9 -5 4 -7 -3 -14 -18 -18 -14 -3 -32
-17 -41 -30 -14 -21 -44 -36 -31 -16 3 5 -1 9 -8 9 -8 0 -12 -6 -9 -14 3 -7 0
-13 -7 -13 -6 0 -8 -5 -4 -11 4 -7 -2 -6 -17 2 -22 11 -23 11 -10 -4 12 -15
11 -17 -8 -17 -15 0 -21 -5 -19 -16 2 -10 -4 -19 -12 -21 -13 -4 -13 -3 0 7
13 10 13 11 0 7 -8 -2 -14 -11 -12 -21 2 -9 -2 -16 -8 -16 -18 0 -42 -29 -34
-41 4 -8 0 -7 -16 1 -20 10 -21 10 -11 -8 9 -17 7 -19 -14 -14 -15 2 -25 0
-25 -7 0 -7 -4 -9 -10 -6 -5 3 -10 2 -10 -4 0 -6 -7 -8 -15 -5 -9 4 -15 0 -15
-10 0 -9 -4 -16 -10 -16 -5 0 -10 -7 -10 -16 0 -11 -5 -14 -16 -10 -11 4 -15
2 -11 -8 3 -8 -1 -17 -9 -20 -10 -4 -12 -2 -8 6 5 7 3 8 -5 4 -7 -5 -10 -15
-7 -23 3 -8 1 -11 -4 -8 -6 3 -13 -1 -16 -9 -3 -9 -10 -13 -15 -11 -5 3 -11
-6 -15 -20 -5 -22 -9 -24 -22 -13 -13 11 -14 10 -4 -8 9 -16 8 -21 -3 -21 -8
0 -11 5 -8 10 3 6 1 7 -5 3 -7 -4 -12 -17 -12 -29 0 -18 -2 -19 -10 -7 -8 12
-10 10 -10 -9 0 -21 -2 -22 -17 -10 -15 13 -15 12 -4 -9 6 -12 8 -22 4 -21 -4
1 -17 1 -28 0 -17 -1 -18 -3 -5 -11 13 -8 12 -10 -4 -10 -12 0 -16 -5 -12 -15
3 -8 0 -14 -7 -12 -7 1 -11 -4 -9 -11 2 -10 -2 -10 -19 -2 -19 11 -20 10 -8
-12 11 -21 11 -22 -5 -9 -9 8 -19 11 -23 7 -3 -3 -1 -6 7 -6 9 0 10 -3 1 -13
-6 -8 -8 -17 -4 -20 3 -4 -2 -7 -11 -7 -12 0 -16 -5 -12 -16 4 -10 2 -13 -6
-8 -8 5 -9 2 -5 -9 3 -9 3 -16 -1 -16 -18 3 -51 -14 -46 -23 3 -5 -3 -16 -14
-24 -12 -8 -19 -21 -16 -28 4 -11 -26 -29 -47 -28 -3 1 -6 -6 -6 -14 0 -10 4
-11 11 -4 5 5 15 10 20 10 6 0 -1 -8 -17 -18 -15 -10 -24 -22 -20 -27 5 -4 1
-6 -8 -2 -13 4 -16 1 -12 -14 4 -15 2 -18 -12 -12 -13 4 -16 3 -11 -6 5 -8 -6
-25 -31 -46 -36 -30 -56 -72 -29 -59 6 3 1 -3 -11 -12 -17 -12 -20 -20 -13
-34 8 -15 6 -17 -13 -13 -18 4 -19 3 -7 -7 13 -10 12 -11 -6 -7 -17 4 -20 0
-16 -20 4 -19 1 -22 -14 -16 -17 6 -17 5 -5 -11 8 -9 10 -16 5 -15 -21 4 -34
-2 -34 -16 0 -8 -6 -15 -12 -15 -10 0 -9 -3 1 -9 11 -7 9 -10 -9 -16 -18 -6
-20 -9 -9 -16 8 -5 9 -9 4 -9 -6 0 -16 -14 -23 -30 -8 -17 -17 -28 -21 -25 -4
2 -8 -2 -8 -10 0 -8 5 -15 11 -15 6 0 -1 -8 -17 -18 -15 -10 -24 -22 -20 -27
5 -4 0 -5 -10 -2 -15 6 -16 4 -6 -16 11 -20 11 -21 -4 -9 -14 12 -16 11 -12
-7 3 -14 -1 -21 -12 -21 -13 0 -13 -3 -3 -15 7 -8 10 -16 6 -16 -3 -1 -10 -3
-16 -4 -5 -1 -13 -3 -17 -4 -4 0 -2 -6 5 -13 7 -7 12 -17 12 -22 0 -6 -4 -5
-9 2 -6 10 -11 9 -22 -4 -11 -14 -11 -16 0 -10 9 6 8 1 -3 -16 -9 -14 -13 -28
-9 -33 5 -4 2 -5 -4 -1 -8 4 -13 1 -13 -9 0 -10 -5 -13 -12 -9 -9 5 -9 2 1 -9
12 -16 8 -22 -12 -18 -5 1 -6 -3 -2 -9 3 -5 1 -10 -4 -10 -6 0 -11 -5 -11 -11
0 -5 5 -7 12 -3 7 4 8 3 4 -4 -4 -7 -15 -12 -24 -12 -15 0 -15 -2 -2 -10 13
-9 12 -13 -7 -29 -25 -21 -31 -36 -10 -26 6 4 2 -2 -11 -12 -18 -15 -20 -21
-10 -32 10 -11 10 -12 1 -7 -12 7 -18 -6 -14 -28 1 -5 -5 -6 -13 -3 -11 5 -13
0 -6 -23 7 -23 5 -28 -6 -23 -8 3 -14 2 -13 -3 3 -20 -2 -35 -10 -30 -5 4 -8
-2 -6 -11 1 -10 -4 -29 -12 -42 -12 -18 -12 -25 -3 -31 9 -6 7 -10 -8 -14 -14
-5 -19 -13 -17 -26 2 -11 0 -20 -4 -20 -5 0 -6 -12 -3 -26 3 -19 1 -25 -7 -20
-7 5 -11 -1 -11 -14 0 -15 -5 -20 -13 -17 -10 4 -13 -2 -9 -20 4 -20 2 -24 -9
-18 -12 8 -12 6 0 -8 12 -15 9 -21 -11 -18 -4 0 -5 -5 -2 -13 3 -8 1 -17 -5
-21 -6 -3 -11 -12 -11 -18 0 -7 4 -6 10 3 5 8 10 12 10 7 0 -11 -23 -51 -35
-59 -6 -5 -4 -8 5 -8 9 0 11 -3 5 -8 -12 -8 -35 -48 -35 -59 0 -5 5 -1 10 7 6
9 10 10 10 3 0 -6 -4 -15 -10 -18 -5 -3 -10 -17 -10 -30 0 -13 -4 -27 -10 -30
-5 -3 -10 -19 -10 -36 0 -16 -5 -29 -12 -29 -8 0 -9 -3 -3 -8 13 -9 18 -35 5
-27 -6 4 -10 -6 -10 -25 0 -22 -4 -29 -12 -24 -9 5 -9 2 1 -9 9 -11 10 -17 2
-17 -6 0 -11 -12 -11 -26 0 -14 -4 -23 -9 -19 -6 3 -8 -4 -6 -15 2 -11 1 -20
-3 -20 -4 0 -6 -19 -4 -41 3 -28 0 -44 -9 -50 -8 -5 -9 -9 -3 -9 6 0 11 -7 11
-15 0 -8 -4 -12 -9 -9 -4 3 -8 -11 -8 -30 0 -19 -5 -38 -10 -41 -8 -5 -7 -12
2 -23 10 -12 10 -14 1 -8 -10 5 -13 -5 -13 -38 0 -30 -4 -46 -12 -46 -9 0 -8
-4 2 -11 11 -8 12 -12 2 -16 -6 -2 -10 -9 -6 -14 3 -5 2 -9 -3 -9 -4 0 -7 -59
-5 -131 2 -96 0 -135 -10 -147 -10 -12 -10 -14 0 -8 6 4 12 3 12 -3 0 -5 -4
-12 -9 -15 -14 -9 -12 -356 2 -356 7 0 5 -5 -3 -10 -10 -6 -11 -10 -2 -10 8 0
12 -18 12 -54 0 -30 5 -58 10 -61 6 -3 10 -11 10 -16 0 -6 -5 -7 -11 -3 -8 5
-8 1 0 -14 6 -11 11 -46 11 -76 0 -38 4 -56 13 -56 8 0 7 -4 -3 -10 -10 -6
-11 -10 -2 -10 7 0 12 -13 12 -31 0 -21 4 -28 13 -23 8 5 8 2 -2 -9 -9 -11
-10 -17 -2 -17 6 0 11 -16 11 -35 0 -21 5 -35 13 -35 8 0 7 -4 -3 -11 -11 -8
-12 -12 -2 -16 6 -2 12 -15 12 -28 0 -13 5 -27 10 -30 6 -3 10 -12 10 -18 0
-7 -4 -6 -10 3 -5 8 -10 10 -10 5 0 -6 4 -15 9 -20 5 -6 11 -23 13 -40 1 -16
10 -36 18 -43 8 -8 10 -11 3 -8 -7 4 -10 -1 -9 -11 2 -9 8 -19 14 -21 7 -2 12
-15 12 -28 0 -13 5 -24 11 -24 5 0 8 -4 4 -9 -3 -5 1 -16 9 -24 11 -11 12 -17
3 -27 -9 -10 -9 -11 1 -6 8 5 12 -2 12 -23 0 -17 5 -31 11 -31 5 0 8 -4 4 -9
-3 -5 2 -16 10 -24 11 -12 12 -17 2 -20 -9 -4 -9 -6 1 -6 6 -1 12 -10 12 -21
0 -11 5 -20 10 -20 6 0 10 -9 10 -20 0 -11 5 -20 10 -20 6 0 10 -8 10 -18 0
-11 10 -24 23 -31 12 -6 15 -10 5 -7 -17 5 -19 -17 -3 -31 4 -4 5 -2 0 6 -5 9
-4 12 3 7 7 -4 12 -15 12 -25 0 -10 10 -23 23 -30 12 -6 14 -9 5 -7 -12 4 -15
1 -11 -10 3 -7 9 -14 14 -14 5 0 9 -7 9 -16 0 -9 8 -23 18 -31 9 -8 12 -12 5
-9 -6 4 -15 2 -18 -4 -4 -6 -1 -9 7 -8 7 2 12 -3 11 -9 -2 -7 0 -12 5 -12 22
4 29 -4 26 -27 -2 -18 1 -24 12 -20 7 3 13 2 13 -2 -4 -22 3 -33 15 -29 10 4
13 -1 11 -18 -1 -14 1 -22 6 -20 4 3 10 1 14 -5 3 -5 0 -10 -7 -10 -9 -1 -7
-5 4 -14 10 -7 18 -22 18 -32 0 -16 2 -17 10 -4 8 13 10 12 10 -3 0 -10 5 -15
11 -11 7 4 9 -2 7 -17 -2 -15 2 -23 9 -22 7 2 13 -2 13 -8 0 -5 5 -7 10 -4 13
8 8 -18 -5 -27 -5 -4 1 -8 15 -8 20 0 22 -2 10 -10 -8 -5 -10 -10 -4 -10 5 0
19 -7 30 -16 10 -8 12 -12 4 -8 -12 7 -13 5 -3 -8 7 -8 12 -17 10 -19 -1 -2 4
3 12 11 11 13 12 12 6 -9 -5 -16 -4 -21 4 -17 6 4 14 0 17 -9 6 -13 9 -14 16
-3 6 9 7 6 3 -9 -5 -17 -2 -23 9 -23 8 0 18 -5 22 -12 5 -7 3 -8 -5 -3 -9 5
-9 1 1 -16 7 -13 17 -27 21 -30 4 -3 9 -15 10 -26 1 -15 7 -20 24 -18 26 3 39
-10 22 -21 -8 -5 -9 -3 -4 6 6 9 4 11 -4 6 -9 -6 -8 -13 5 -27 9 -10 22 -19
27 -19 6 0 2 7 -9 16 -18 15 -18 15 3 4 12 -5 25 -15 29 -22 4 -7 3 -8 -4 -4
-7 4 -12 2 -12 -3 0 -6 10 -11 23 -11 18 0 19 -2 7 -10 -12 -8 -10 -10 10 -10
20 0 22 -2 10 -10 -12 -8 -10 -10 10 -10 20 0 22 -2 10 -10 -12 -8 -11 -10 8
-10 16 0 22 -6 22 -22 0 -19 2 -20 10 -8 8 12 10 11 10 -7 0 -17 6 -23 23 -23
18 0 19 -2 7 -10 -12 -8 -11 -10 8 -10 16 0 22 -6 22 -22 0 -19 2 -20 10 -8 8
12 10 11 10 -7 0 -13 5 -23 11 -23 5 0 7 6 3 13 -4 6 18 -13 49 -43 31 -30 57
-64 57 -75 0 -17 2 -17 10 -5 8 12 10 10 10 -10 0 -20 2 -22 10 -10 8 13 10
12 10 -3 0 -10 10 -28 22 -40 l22 -22 -18 30 -18 30 25 -25 c16 -17 21 -29 15
-37 -7 -8 -3 -10 14 -6 19 4 20 3 8 -7 -12 -10 -11 -11 8 -7 18 4 22 2 18 -9
-3 -8 0 -13 7 -11 7 1 11 -4 9 -12 -3 -12 -1 -12 15 -1 10 8 15 11 11 6 -10
-12 20 -39 33 -30 8 4 9 3 5 -4 -4 -7 -1 -12 8 -12 8 0 20 -9 26 -20 6 -11 16
-18 22 -14 7 4 8 -2 3 -17 -7 -23 -7 -24 9 -4 15 20 15 20 11 -2 -3 -16 3 -26
18 -34 21 -10 21 -10 3 5 -11 9 -15 16 -8 16 6 0 18 -10 26 -21 10 -14 21 -19
32 -15 13 5 14 4 6 -7 -10 -11 -6 -13 19 -12 19 1 26 -2 20 -8 -13 -13 37 -67
55 -60 8 3 14 0 14 -6 0 -6 7 -11 15 -11 8 0 15 -4 15 -10 0 -5 5 -10 11 -10
6 0 20 -11 30 -25 12 -14 26 -22 34 -18 8 3 15 0 15 -6 0 -6 7 -11 15 -11 9 0
18 -6 21 -14 3 -9 12 -12 21 -9 10 4 14 2 10 -4 -8 -12 20 -26 33 -18 5 3 14
-4 20 -15 6 -11 21 -20 35 -20 13 0 27 -5 31 -12 4 -6 3 -8 -3 -5 -5 3 -10 0
-10 -7 0 -8 6 -12 14 -9 7 3 13 1 13 -4 0 -13 78 -46 90 -38 6 4 9 1 8 -6 -2
-7 11 -18 28 -24 20 -6 29 -15 27 -25 -4 -13 -3 -13 6 0 8 12 13 12 30 -4 11
-10 25 -15 32 -10 8 4 10 3 5 -4 -5 -8 1 -12 16 -13 13 0 17 -3 9 -6 -15 -6
51 -33 83 -33 12 0 16 -5 13 -14 -4 -10 -1 -13 9 -9 7 3 14 1 14 -5 0 -5 9
-12 19 -15 15 -3 18 -1 14 12 -4 12 -1 12 11 -3 8 -10 13 -23 10 -27 -3 -5 2
-6 10 -3 9 3 16 1 16 -6 0 -6 4 -9 9 -6 5 3 14 -1 21 -9 7 -8 16 -12 22 -9 5
3 15 0 23 -6 12 -10 15 -9 15 4 0 10 5 14 10 11 6 -4 8 -11 5 -16 -4 -5 -1 -9
5 -9 6 0 8 -5 4 -12 -5 -7 -3 -8 5 -4 16 10 73 -13 64 -27 -4 -6 4 -8 21 -5
17 4 26 1 26 -8 0 -12 37 -30 54 -26 4 2 15 -3 24 -10 12 -10 14 -10 8 -1 -5
9 -2 11 9 7 9 -4 14 -12 11 -19 -3 -8 2 -11 15 -8 11 3 19 0 19 -7 0 -7 8 -10
20 -7 18 4 24 -3 22 -24 -1 -3 12 -5 29 -4 16 1 29 -3 29 -8 0 -5 9 -7 19 -4
12 3 22 -1 25 -10 4 -10 14 -13 27 -10 12 3 22 0 26 -9 3 -8 9 -11 14 -8 6 3
17 0 26 -8 14 -11 16 -11 8 2 -6 12 -5 13 6 3 7 -7 21 -13 30 -13 10 0 21 -5
25 -12 5 -7 3 -8 -6 -3 -9 6 -11 4 -5 -4 5 -9 11 -9 17 -3 11 11 41 5 34 -7
-3 -4 8 -6 25 -5 16 1 32 -2 35 -7 3 -5 14 -4 26 2 16 9 19 8 13 -2 -6 -9 -2
-11 13 -7 12 4 20 3 17 -2 -5 -8 72 -24 107 -23 10 0 15 -4 11 -10 -4 -6 0 -8
10 -4 10 3 17 2 17 -4 0 -7 27 -9 75 -7 41 2 75 -1 75 -6 0 -4 7 -6 15 -2 8 3
15 1 15 -4 0 -5 7 -7 15 -4 8 4 22 1 29 -5 10 -8 16 -9 21 -1 3 6 12 7 18 3
18 -11 47 -11 47 1 0 6 4 6 12 -2 7 -7 17 -8 29 -2 12 7 20 6 25 -2 5 -7 3 -8
-6 -3 -8 5 -11 4 -7 -3 4 -5 17 -8 29 -4 14 3 19 2 14 -6 -9 -14 3 -15 24 -3
8 6 19 7 25 3 5 -3 16 -7 23 -8 8 -2 21 -6 30 -10 26 -11 42 -13 42 -5 0 9 28
7 52 -3 9 -4 21 -5 27 -2 5 3 11 2 13 -3 4 -11 104 -18 114 -8 10 10 26 9 20
-2 -3 -5 3 -11 14 -14 11 -3 18 -1 14 4 -3 5 2 6 10 3 9 -3 16 -10 16 -15 0
-6 8 -5 19 1 14 7 22 7 26 0 5 -8 11 -8 20 0 10 8 15 8 20 0 5 -8 11 -8 21 1
11 9 14 9 14 0 0 -9 5 -9 20 -1 14 8 20 8 20 0 0 -8 6 -8 20 0 14 8 20 8 20 0
0 -8 6 -8 20 0 14 8 20 8 20 0 0 -8 6 -8 20 0 15 8 20 8 20 -1 0 -9 3 -9 14 0
10 8 16 9 21 1 4 -7 12 -7 25 0 13 7 21 7 25 0 5 -8 11 -8 20 0 10 8 15 8 20
0 5 -8 11 -8 21 1 11 9 14 9 14 0 0 -9 5 -9 20 -1 14 8 20 8 20 0 0 -8 6 -8
20 0 14 8 20 8 20 0 0 -8 6 -8 20 0 14 8 20 8 20 0 0 -8 6 -8 20 0 15 8 20 8
20 -1 0 -9 3 -9 14 0 10 9 16 9 21 1 5 -8 11 -8 19 -1 7 6 16 8 19 4 4 -3 7
-1 7 6 0 7 5 9 10 6 6 -4 8 -12 4 -18 -3 -7 3 -3 13 8 14 17 25 19 56 14 21
-3 40 -2 43 3 3 4 14 3 25 -2 14 -8 19 -7 19 1 0 6 7 9 15 5 8 -3 19 2 24 11
7 13 12 14 23 6 8 -7 19 -8 28 -3 9 5 20 5 28 -2 10 -9 12 -8 10 2 -3 13 13
17 85 21 20 1 37 7 38 13 0 6 4 2 9 -9 7 -15 9 -16 9 -4 1 19 35 31 49 17 6
-6 12 -5 17 3 6 8 4 10 -6 4 -8 -5 -11 -4 -6 1 9 9 13 10 60 12 18 1 26 6 21
13 -4 8 -1 8 13 1 15 -9 22 -7 33 8 10 14 17 16 27 8 9 -7 13 -7 13 1 0 6 10
11 23 11 13 0 29 6 36 13 11 10 12 9 6 -2 -5 -9 -3 -12 6 -9 8 3 13 11 11 17
-1 7 2 10 8 6 5 -3 10 0 10 7 0 9 3 9 10 -2 8 -12 10 -12 10 -1 0 8 7 11 20 8
12 -3 23 1 29 10 6 11 10 12 15 4 4 -6 12 -11 17 -11 6 0 7 5 4 10 -3 6 1 10
9 10 9 0 16 4 16 9 0 4 11 6 25 3 17 -3 27 1 31 12 3 9 10 13 15 10 5 -3 9 0
9 7 0 8 5 7 17 -2 14 -12 16 -12 8 0 -6 11 -2 13 17 9 19 -3 25 -1 24 11 -1
10 6 15 17 13 9 -2 17 1 17 6 0 5 13 8 29 7 17 -1 29 3 28 9 -1 6 5 11 13 11
8 0 21 8 28 18 7 9 18 15 23 11 5 -3 17 0 26 8 14 11 16 11 9 -2 -5 -9 -2 -8
7 2 10 13 16 15 25 6 12 -12 17 0 13 25 -1 5 3 6 8 3 13 -8 42 4 35 15 -3 5 3
6 12 2 11 -4 22 1 30 12 8 11 14 13 14 6 0 -7 5 -9 11 -6 6 4 8 13 5 21 -5 12
-2 12 15 3 15 -8 19 -8 15 0 -4 6 4 15 19 21 14 5 23 14 20 20 -3 6 1 7 10 4
9 -4 22 1 31 12 9 11 12 13 9 6 -6 -11 -3 -12 12 -3 11 6 24 7 29 3 5 -4 3 0
-4 10 -10 12 -10 18 -1 24 8 5 9 3 4 -6 -5 -8 -3 -11 6 -8 8 3 13 11 11 18 -2
10 1 10 14 -1 12 -9 15 -9 10 -2 -4 8 -2 13 4 13 7 0 10 7 7 14 -4 10 -1 13 8
9 8 -3 12 -10 8 -17 -4 -6 1 -5 10 3 9 7 14 18 10 25 -4 6 2 4 12 -4 11 -9 16
-10 11 -2 -4 7 -2 12 4 12 6 0 8 5 4 13 -5 8 -2 8 9 -2 15 -12 17 -11 17 3 0
10 8 16 23 16 18 0 19 2 7 10 -12 8 -11 10 6 10 12 0 24 7 28 15 3 8 13 15 22
15 9 0 35 19 57 43 28 30 36 35 28 17 -10 -21 -10 -23 1 -10 8 8 20 21 28 29
12 11 12 12 1 6 -9 -5 -12 -4 -7 3 4 7 14 12 22 12 8 0 12 5 9 10 -4 6 -3 10
2 9 10 -3 63 19 63 25 0 3 -8 3 -17 0 -17 -5 -17 -5 0 6 9 6 21 9 26 6 5 -3
15 2 22 12 13 16 13 16 -6 2 -19 -14 -19 -14 -6 3 8 10 21 15 29 12 10 -3 12
0 8 10 -3 9 0 15 9 15 8 0 18 7 23 17 6 9 16 14 25 10 11 -4 14 -2 11 8 -3 8
-13 11 -22 9 -14 -5 -14 -3 1 6 10 6 25 9 33 6 12 -5 12 -2 3 15 -6 12 -7 19
-2 17 16 -10 68 29 67 50 0 18 2 20 15 9 12 -9 13 -9 7 1 -4 7 -1 12 8 12 10
0 13 6 9 18 -6 15 -5 16 12 2 10 -8 16 -10 12 -3 -11 17 3 43 19 36 10 -4 12
0 7 13 -4 12 -3 15 5 10 7 -4 12 -1 12 8 0 8 4 18 10 21 5 3 8 0 7 -7 -2 -7
-2 -10 0 -5 3 4 9 4 15 1 6 -4 6 2 -1 14 -8 15 -8 23 1 28 7 4 8 3 4 -4 -4 -7
0 -12 10 -12 10 0 14 3 11 7 -4 3 0 11 8 17 8 6 16 21 18 33 5 35 27 55 44 41
11 -9 13 -8 11 3 -2 8 -7 17 -13 21 -6 4 -2 8 8 8 10 0 16 4 12 9 -3 5 2 16
11 25 8 9 12 21 8 28 -5 8 0 7 11 -2 11 -9 16 -10 11 -2 -12 20 3 52 21 45 13
-5 14 -3 3 17 -8 15 -8 20 -1 16 6 -4 11 -2 11 4 0 6 5 8 10 5 6 -4 10 -3 9 2
-4 22 2 43 11 38 6 -3 10 3 10 14 0 12 6 21 13 21 8 0 7 4 -3 10 -13 9 -13 10
0 11 8 1 19 1 23 0 5 -1 6 3 2 8 -3 6 -13 8 -23 5 -9 -3 -7 1 6 8 12 8 19 17
16 21 -4 4 -2 7 5 7 7 0 9 5 6 10 -3 6 -1 10 4 10 6 0 11 5 11 11 0 5 -4 7
-10 4 -6 -3 -7 1 -4 9 3 9 9 15 12 14 19 -2 23 4 12 17 -10 12 -9 16 3 21 9 3
14 14 12 25 -2 11 0 17 6 14 5 -4 9 1 9 9 0 9 6 16 13 16 8 0 7 4 -3 10 -10 6
-11 10 -2 10 6 0 12 7 12 15 0 8 6 15 13 15 8 0 7 4 -3 10 -13 8 -11 12 8 26
19 13 21 18 10 32 -10 12 -10 14 0 8 8 -5 12 0 12 14 0 12 10 36 22 53 13 18
16 28 7 23 -7 -4 -6 -1 4 7 12 10 14 16 6 19 -8 3 -7 9 5 20 12 12 13 18 3 22
-8 3 -5 11 11 24 23 21 31 38 11 27 -11 -7 -8 -1 20 54 7 12 8 21 3 17 -5 -3
-9 1 -9 9 0 8 4 12 9 9 4 -3 8 0 8 6 0 6 4 9 8 6 5 -3 9 1 9 9 0 8 -5 11 -10
8 -6 -4 -7 -1 -1 8 5 8 9 17 10 22 1 4 3 10 4 15 1 4 2 15 1 25 -1 9 3 17 10
17 8 0 7 5 -2 17 -10 11 -10 14 -1 9 7 -4 12 -1 12 8 0 9 5 16 12 16 6 0 3 7
-8 15 -11 9 -13 13 -4 10 11 -4 16 2 18 22 1 15 8 30 15 35 9 6 9 8 0 8 -21 0
-15 20 10 30 12 5 16 9 8 9 -11 1 -11 4 0 18 12 15 12 16 -1 8 -13 -8 -13 -7
-1 9 8 9 14 33 13 52 -1 19 2 33 7 30 4 -3 8 1 8 9 0 8 -5 11 -11 8 -6 -3 -5
0 2 8 6 7 12 24 12 37 0 13 4 21 8 18 5 -3 9 1 9 9 0 8 -5 11 -11 8 -6 -3 -5
0 2 8 6 7 12 37 12 67 0 34 4 51 10 47 6 -4 9 -1 8 7 -2 7 3 12 10 10 8 -1 11
2 7 7 -3 6 -13 8 -23 5 -9 -3 -7 1 6 8 12 8 19 17 16 21 -4 4 -3 7 2 7 11 0
11 40 1 57 -4 7 -3 15 3 18 8 5 8 11 0 20 -8 9 -8 15 0 20 7 4 7 12 0 26 -6
10 -7 19 -3 18 21 -3 24 2 12 18 -10 11 -10 14 -1 9 7 -4 12 -2 12 4 0 6 5 8
13 4 8 -5 8 -2 -2 9 -9 11 -10 17 -2 17 8 0 11 42 11 136 0 118 2 139 18 151
9 8 11 12 5 8 -9 -4 -11 -1 -7 9 3 9 9 14 14 11 13 -8 10 1068 -3 1084 -10 12
-9 13 3 6 13 -8 13 -7 1 8 -7 9 -10 17 -5 17 5 0 2 5 -6 10 -8 5 -10 10 -4 10
7 0 9 11 6 25 -2 14 -8 25 -13 25 -5 0 -9 5 -9 11 0 5 6 7 13 3 10 -6 10 -4 0
7 -9 9 -13 49 -13 126 0 69 -4 113 -10 113 -5 0 -10 5 -10 11 0 5 6 7 13 4 6
-4 2 2 -10 13 -18 16 -23 31 -23 71 0 34 -4 51 -12 51 -10 0 -9 3 1 9 7 5 10
14 7 20 -4 6 -12 8 -18 5 -7 -4 -8 -2 -4 4 4 7 1 12 -6 12 -9 0 -9 3 2 10 10
6 11 10 3 10 -9 0 -13 16 -13 46 0 31 -6 51 -18 62 -9 10 -13 14 -8 10 21 -17
28 -7 8 11 -17 14 -22 30 -22 68 0 36 -6 55 -20 71 -12 12 -16 22 -11 22 6 0
15 -8 20 -17 6 -10 11 -12 11 -6 0 7 -9 18 -20 25 -14 9 -20 24 -20 51 0 28
-3 36 -12 31 -10 -6 -9 -3 0 9 12 13 10 18 -7 29 -12 7 -21 21 -21 30 0 10 -4
18 -10 18 -5 0 -10 5 -10 11 0 5 4 7 10 4 6 -3 7 1 4 9 -3 9 -11 14 -16 13 -6
-1 -13 4 -16 12 -3 9 0 11 8 6 9 -5 8 0 -3 14 -8 13 -13 30 -10 37 3 8 0 14
-6 14 -6 0 -11 5 -11 11 0 5 6 7 13 4 6 -4 2 2 -10 13 -13 11 -23 27 -23 36 0
9 -4 16 -10 16 -5 0 -10 5 -10 11 0 5 5 7 12 3 7 -4 8 -3 4 4 -4 7 -15 12 -24
12 -14 0 -14 2 -3 9 7 5 10 14 7 20 -4 6 -11 9 -16 6 -4 -3 -11 2 -14 11 -3 8
-2 13 2 10 5 -3 9 1 9 9 0 8 -4 12 -9 9 -4 -3 -8 0 -8 6 0 6 -5 8 -12 4 -10
-6 -10 -5 -1 7 10 12 8 17 -8 27 -10 7 -19 21 -19 32 0 11 -6 20 -12 20 -9 0
-8 4 2 10 13 8 8 14 -11 12 -3 0 -11 9 -19 21 -12 21 -12 21 6 7 17 -14 18
-13 7 1 -7 9 -10 19 -6 23 4 4 -1 4 -12 0 -15 -6 -17 -4 -12 9 3 9 2 17 -4 17
-6 0 -7 5 -4 10 3 6 1 10 -6 10 -9 0 -9 3 0 14 10 12 8 13 -11 8 -21 -5 -22
-4 -9 11 9 11 10 17 2 17 -6 0 -11 7 -11 16 0 9 -5 12 -12 8 -10 -6 -10 -5 -1
8 15 17 7 29 -13 21 -8 -3 -14 -2 -13 3 1 5 1 16 0 24 -1 11 -3 12 -9 3 -6 -9
-11 -6 -21 8 -7 12 -8 18 -3 15 6 -3 5 5 -1 19 -7 14 -16 25 -21 25 -5 0 -3 6
3 14 10 12 8 14 -11 9 -18 -4 -20 -3 -8 6 13 9 12 11 -5 11 -11 0 -36 17 -55
37 -19 20 -29 33 -22 29 6 -4 12 -2 12 3 0 6 -4 11 -10 11 -5 0 -10 9 -10 20
0 11 -5 20 -11 20 -8 0 -8 4 0 14 10 12 8 14 -11 9 -18 -4 -20 -3 -8 6 13 9
12 11 -5 11 -23 0 -45 18 -45 34 0 6 5 3 11 -6 5 -10 14 -18 20 -18 17 0 -46
62 -83 81 -20 10 -40 24 -44 31 -4 6 3 4 17 -5 13 -9 28 -17 34 -17 5 1 -3 8
-18 16 -15 8 -25 19 -22 24 3 4 -5 6 -17 3 -19 -4 -20 -3 -8 6 13 9 12 11 -5
11 -23 0 -45 18 -45 34 0 6 5 3 11 -6 5 -10 14 -18 20 -18 16 0 -45 61 -81 81
-19 10 -51 35 -70 56 -36 38 -4 17 37 -24 12 -13 28 -23 35 -23 8 0 6 5 -5 11
-22 13 -72 62 -70 70 1 3 -8 6 -20 6 -52 3 -69 8 -78 25 -6 11 -16 15 -26 11
-10 -4 -14 -2 -10 4 9 15 -22 53 -44 53 -11 0 -19 7 -19 16 0 8 -5 12 -11 9
-6 -4 -17 1 -25 11 -9 11 -13 13 -9 7 3 -7 1 -13 -4 -13 -10 0 -15 14 -12 32
0 4 -6 5 -14 2 -8 -4 -15 -1 -15 6 0 9 -4 9 -17 -1 -11 -10 -14 -10 -9 -1 4 7
1 12 -8 12 -9 0 -15 5 -14 11 2 7 -12 16 -29 21 -18 5 -33 13 -33 19 0 6 -4 8
-9 5 -5 -3 -11 3 -14 13 -3 14 -11 18 -26 14 -16 -4 -20 -2 -16 9 5 12 0 15
-19 13 -15 -2 -24 1 -20 6 3 5 -7 9 -21 9 -19 0 -26 4 -22 14 4 10 0 12 -14 9
-12 -3 -19 0 -19 8 0 10 -3 10 -12 1 -7 -7 -17 -12 -22 -12 -6 0 -4 5 4 10 12
8 11 10 -7 10 -14 0 -23 6 -23 15 0 9 -6 12 -16 8 -10 -4 -20 1 -27 13 -10 17
-11 17 -18 -1 -7 -17 -8 -18 -8 -2 -1 9 -6 17 -12 17 -5 0 -8 4 -5 8 2 4 -11
7 -29 7 -19 -1 -32 2 -29 6 2 4 0 10 -6 14 -5 3 -10 1 -10 -6 0 -18 -30 10
-31 30 0 12 -2 11 -9 -4 -7 -18 -8 -19 -15 -3 -4 10 -11 15 -16 12 -6 -3 -17
0 -26 8 -14 11 -16 11 -9 -1 6 -9 1 -8 -16 3 -14 9 -28 13 -33 9 -4 -5 -5 -3
-1 4 3 6 2 14 -4 18 -5 3 -10 1 -10 -5 0 -6 -5 -8 -10 -5 -6 4 -8 10 -5 15 3
5 -4 7 -15 5 -11 -2 -20 1 -20 7 0 6 -9 8 -21 5 -12 -3 -18 -3 -15 0 3 4 -4
11 -17 18 -18 9 -23 8 -29 -4 -6 -14 -7 -14 -7 -1 -1 8 -10 21 -22 28 -12 8
-18 9 -14 3 3 -6 2 -11 -4 -11 -5 0 -12 6 -14 13 -4 9 -6 9 -6 -1 -1 -8 -8 -6
-23 8 -13 12 -24 16 -28 10 -4 -6 -16 -2 -31 10 -15 14 -25 17 -27 10 -3 -7
-14 -2 -30 12 -14 13 -22 17 -18 11 4 -7 2 -13 -3 -13 -6 0 -11 5 -11 10 0 6
-5 10 -11 10 -5 0 -7 -5 -4 -11 4 -6 -2 -5 -14 3 -12 7 -21 20 -22 28 0 10 -3
9 -8 -4 -5 -14 -10 -16 -15 -8 -4 7 -19 12 -33 12 -20 0 -24 4 -19 18 6 16 5
16 -8 -1 -11 -15 -16 -15 -28 -5 -19 18 -38 21 -54 7 -12 -9 -13 -9 -9 4 4 10
1 15 -11 14 -9 -1 -19 5 -21 13 -4 13 -3 13 7 0 10 -13 11 -13 7 0 -2 8 -11
13 -18 12 -40 -10 -50 -10 -55 2 -3 8 -14 12 -25 9 -10 -3 -26 0 -34 7 -8 7
-15 9 -15 6 0 -4 -10 -1 -22 5 -22 12 -22 11 -8 -7 14 -18 14 -18 -5 -3 -33
26 -49 34 -40 19 5 -8 -1 -7 -16 3 -28 20 -43 22 -33 5 6 -10 3 -9 -8 0 -9 7
-34 15 -55 18 -21 3 -40 9 -41 14 -2 6 -8 8 -13 4 -19 -11 -50 -13 -43 -2 5 7
2 9 -9 5 -9 -3 -17 -2 -19 3 -2 5 -33 10 -70 12 -46 2 -69 7 -73 17 -4 11 -8
11 -22 0 -14 -12 -16 -12 -8 0 6 11 4 13 -8 8 -10 -3 -17 -3 -17 1 0 8 -19 10
-92 12 -15 1 -31 6 -35 13 -4 7 -9 4 -14 -9 -6 -15 -8 -15 -8 -3 -1 16 -41 35
-41 20 0 -9 -31 -8 -47 2 -6 4 -23 3 -37 -3 -17 -6 -26 -6 -26 0 0 6 -9 10
-19 10 -11 0 -22 6 -24 13 -4 9 -6 9 -6 -1 -1 -10 -6 -10 -21 -2 -11 6 -20 7
-20 2 0 -5 -18 -6 -40 -2 -23 4 -43 3 -46 -2 -3 -5 -12 -4 -20 3 -8 6 -14 7
-14 2 0 -5 -27 -6 -61 -3 -33 3 -63 2 -66 -3 -2 -4 -11 -3 -19 4 -8 6 -14 7
-14 2 0 -5 -27 -6 -61 -3 -33 3 -63 2 -66 -3 -2 -4 -11 -3 -19 4 -8 6 -14 7
-14 2 0 -5 -27 -6 -61 -3 -33 3 -63 2 -66 -3 -2 -4 -11 -3 -19 4 -8 6 -14 7
-14 2 0 -7 -15 -7 -40 -3 -23 4 -43 3 -46 -2 -3 -5 -12 -4 -20 3 -8 6 -14 7
-14 2 0 -7 -15 -7 -40 -3 -22 4 -43 4 -46 -1 -2 -4 -16 -4 -29 1 -17 6 -25 6
-25 -1z m3335 -810 c11 -16 1 -19 -13 -3 -7 8 -8 14 -3 14 5 0 13 -5 16 -11z
m256 -199 c13 -10 18 -19 12 -20 -7 0 -13 4 -13 8 0 5 -10 14 -22 20 -13 6
-18 11 -12 11 7 1 22 -8 35 -19z m160 -160 c13 -10 18 -19 12 -20 -7 0 -13 4
-13 8 0 5 -10 14 -22 20 -13 6 -18 11 -12 11 7 1 22 -8 35 -19z m-6284 -335
c0 -8 -4 -12 -9 -9 -4 3 -11 -2 -14 -10 -3 -9 -11 -16 -17 -16 -6 0 0 11 13
25 28 29 27 29 27 10z m6888 -705 c3 -6 -1 -7 -9 -4 -18 7 -21 14 -7 14 6 0
13 -4 16 -10z m-675 -4454 c0 -3 -4 -8 -10 -11 -5 -3 -10 -1 -10 4 0 6 5 11
10 11 6 0 10 -2 10 -4z m-5470 -81 c0 -12 -20 6 -31 28 l-11 22 21 -22 c11
-12 21 -25 21 -28z m120 -77 c0 -6 -6 -5 -15 2 -8 7 -15 14 -15 16 0 2 7 1 15
-2 8 -4 15 -11 15 -16z m714 -384 c3 -8 2 -12 -4 -9 -6 3 -10 10 -10 16 0 14
7 11 14 -7z"/>
<path d="M7030 7285 c0 -5 5 -17 10 -25 5 -8 10 -10 10 -5 0 6 -5 17 -10 25
-5 8 -10 11 -10 5z"/>
<path d="M1376 6993 c-6 -14 -5 -15 5 -6 7 7 10 15 7 18 -3 3 -9 -2 -12 -12z"/>
<path d="M7534 6765 c13 -14 26 -25 30 -25 3 0 -4 11 -16 25 -12 14 -25 25
-29 25 -5 0 2 -11 15 -25z"/>
<path d="M7805 6341 c-3 -5 -2 -12 3 -15 5 -3 9 1 9 9 0 17 -3 19 -12 6z"/>
<path d="M853 6265 c0 -8 4 -12 9 -9 5 3 6 10 3 15 -9 13 -12 11 -12 -6z"/>
<path d="M1290 1845 c0 -5 5 -17 10 -25 5 -8 10 -10 10 -5 0 6 -5 17 -10 25
-5 8 -10 11 -10 5z"/>
<path d="M1328 1805 c11 -21 52 -59 52 -49 0 3 -14 20 -32 37 -18 18 -27 23
-20 12z"/>
<path d="M7531 1697 c-8 -10 -7 -14 2 -14 8 0 14 6 14 14 0 7 -1 13 -2 13 -2
0 -8 -6 -14 -13z"/>
</g>
</svg>
